<mxfile host="app.diagrams.net" modified="2020-10-01T15:50:16.693Z" agent="5.0 (Windows NT 10.0; Win64; x64) AppleWebKit/537.36 (KHTML, like Gecko) Chrome/85.0.4183.121 Safari/537.36" etag="l0fMfhyFj0B62c8F0eHW" version="13.7.7" type="github">
  <diagram id="Nb8XEOEdDejZ4XJvN98P" name="Page-1">
    <mxGraphModel dx="1102" dy="614" grid="1" gridSize="10" guides="1" tooltips="1" connect="1" arrows="1" fold="1" page="1" pageScale="1" pageWidth="827" pageHeight="1169" math="0" shadow="0">
      <root>
        <mxCell id="0" />
        <mxCell id="1" parent="0" />
        <mxCell id="9MmCgiFDYOu9zspJhB9Q-1" value="Cliente" style="rounded=0;whiteSpace=wrap;html=1;fillColor=#d5e8d4;strokeColor=#82b366;" vertex="1" parent="1">
          <mxGeometry x="120" y="80" width="80" height="40" as="geometry" />
        </mxCell>
        <mxCell id="9MmCgiFDYOu9zspJhB9Q-2" value="num_cliente" style="ellipse;whiteSpace=wrap;html=1;fontSize=11;" vertex="1" parent="1">
          <mxGeometry x="40" y="40" width="70" height="30" as="geometry" />
        </mxCell>
        <mxCell id="9MmCgiFDYOu9zspJhB9Q-3" value="dir_envío" style="ellipse;whiteSpace=wrap;html=1;fontSize=11;" vertex="1" parent="1">
          <mxGeometry x="125" y="20" width="70" height="30" as="geometry" />
        </mxCell>
        <mxCell id="9MmCgiFDYOu9zspJhB9Q-4" value="saldo" style="ellipse;whiteSpace=wrap;html=1;fontSize=11;fillColor=#fff2cc;strokeColor=#d6b656;" vertex="1" parent="1">
          <mxGeometry x="30" y="100" width="70" height="30" as="geometry" />
        </mxCell>
        <mxCell id="9MmCgiFDYOu9zspJhB9Q-5" value="límite_crédito" style="ellipse;whiteSpace=wrap;html=1;fontSize=11;fillColor=#fff2cc;strokeColor=#d6b656;" vertex="1" parent="1">
          <mxGeometry x="125" y="140" width="70" height="30" as="geometry" />
        </mxCell>
        <mxCell id="9MmCgiFDYOu9zspJhB9Q-9" value="articulo" style="rounded=0;whiteSpace=wrap;html=1;fillColor=#d5e8d4;strokeColor=#82b366;" vertex="1" parent="1">
          <mxGeometry x="520" y="80" width="80" height="40" as="geometry" />
        </mxCell>
        <mxCell id="9MmCgiFDYOu9zspJhB9Q-10" value="num_cliente" style="ellipse;whiteSpace=wrap;html=1;fontSize=11;fillColor=#f8cecc;strokeColor=#b85450;" vertex="1" parent="1">
          <mxGeometry x="40" y="40" width="70" height="30" as="geometry" />
        </mxCell>
        <mxCell id="9MmCgiFDYOu9zspJhB9Q-11" value="dir_envío" style="ellipse;whiteSpace=wrap;html=1;fontSize=11;fillColor=#fff2cc;strokeColor=#d6b656;" vertex="1" parent="1">
          <mxGeometry x="125" y="20" width="70" height="30" as="geometry" />
        </mxCell>
        <mxCell id="9MmCgiFDYOu9zspJhB9Q-12" value="descuento" style="ellipse;whiteSpace=wrap;html=1;fontSize=11;fillColor=#fff2cc;strokeColor=#d6b656;" vertex="1" parent="1">
          <mxGeometry x="210" y="30" width="70" height="30" as="geometry" />
        </mxCell>
        <mxCell id="9MmCgiFDYOu9zspJhB9Q-13" value="existencas" style="ellipse;whiteSpace=wrap;html=1;fontSize=11;fillColor=#fff2cc;strokeColor=#d6b656;" vertex="1" parent="1">
          <mxGeometry x="620" y="140" width="70" height="30" as="geometry" />
        </mxCell>
        <mxCell id="9MmCgiFDYOu9zspJhB9Q-15" value="num_articulo" style="ellipse;whiteSpace=wrap;html=1;fontSize=11;fillColor=#f8cecc;strokeColor=#b85450;" vertex="1" parent="1">
          <mxGeometry x="640" y="90" width="70" height="30" as="geometry" />
        </mxCell>
        <mxCell id="9MmCgiFDYOu9zspJhB9Q-16" value="descripcion" style="ellipse;whiteSpace=wrap;html=1;fontSize=11;fillColor=#fff2cc;strokeColor=#d6b656;" vertex="1" parent="1">
          <mxGeometry x="525" y="20" width="70" height="30" as="geometry" />
        </mxCell>
        <mxCell id="9MmCgiFDYOu9zspJhB9Q-17" value="fabricas" style="ellipse;whiteSpace=wrap;html=1;fontSize=11;fillColor=#fff2cc;strokeColor=#d6b656;" vertex="1" parent="1">
          <mxGeometry x="610" y="40" width="70" height="30" as="geometry" />
        </mxCell>
        <mxCell id="9MmCgiFDYOu9zspJhB9Q-23" value="" style="endArrow=none;html=1;fontSize=11;exitX=0.5;exitY=0;exitDx=0;exitDy=0;" edge="1" parent="1" source="9MmCgiFDYOu9zspJhB9Q-5">
          <mxGeometry width="50" height="50" relative="1" as="geometry">
            <mxPoint x="150" y="140" as="sourcePoint" />
            <mxPoint x="160" y="120" as="targetPoint" />
          </mxGeometry>
        </mxCell>
        <mxCell id="9MmCgiFDYOu9zspJhB9Q-24" value="" style="endArrow=none;html=1;fontSize=11;entryX=0;entryY=0.5;entryDx=0;entryDy=0;exitX=1;exitY=0.5;exitDx=0;exitDy=0;" edge="1" parent="1" source="9MmCgiFDYOu9zspJhB9Q-4" target="9MmCgiFDYOu9zspJhB9Q-1">
          <mxGeometry width="50" height="50" relative="1" as="geometry">
            <mxPoint x="60" y="190" as="sourcePoint" />
            <mxPoint x="110" y="140" as="targetPoint" />
          </mxGeometry>
        </mxCell>
        <mxCell id="9MmCgiFDYOu9zspJhB9Q-25" value="" style="endArrow=none;html=1;fontSize=11;entryX=1;entryY=1;entryDx=0;entryDy=0;exitX=0;exitY=0;exitDx=0;exitDy=0;" edge="1" parent="1" source="9MmCgiFDYOu9zspJhB9Q-1" target="9MmCgiFDYOu9zspJhB9Q-10">
          <mxGeometry width="50" height="50" relative="1" as="geometry">
            <mxPoint x="120" y="110" as="sourcePoint" />
            <mxPoint x="170" y="60" as="targetPoint" />
          </mxGeometry>
        </mxCell>
        <mxCell id="9MmCgiFDYOu9zspJhB9Q-26" value="" style="endArrow=none;html=1;fontSize=11;entryX=0.5;entryY=1;entryDx=0;entryDy=0;exitX=0.5;exitY=0;exitDx=0;exitDy=0;" edge="1" parent="1" source="9MmCgiFDYOu9zspJhB9Q-1" target="9MmCgiFDYOu9zspJhB9Q-11">
          <mxGeometry width="50" height="50" relative="1" as="geometry">
            <mxPoint x="290" y="130" as="sourcePoint" />
            <mxPoint x="340" y="80" as="targetPoint" />
          </mxGeometry>
        </mxCell>
        <mxCell id="9MmCgiFDYOu9zspJhB9Q-27" value="" style="endArrow=none;html=1;fontSize=11;entryX=0.314;entryY=1.033;entryDx=0;entryDy=0;entryPerimeter=0;exitX=1;exitY=0;exitDx=0;exitDy=0;" edge="1" parent="1" source="9MmCgiFDYOu9zspJhB9Q-1" target="9MmCgiFDYOu9zspJhB9Q-12">
          <mxGeometry width="50" height="50" relative="1" as="geometry">
            <mxPoint x="230" y="140" as="sourcePoint" />
            <mxPoint x="280" y="90" as="targetPoint" />
          </mxGeometry>
        </mxCell>
        <mxCell id="9MmCgiFDYOu9zspJhB9Q-28" value="" style="endArrow=none;html=1;fontSize=11;entryX=0.5;entryY=1;entryDx=0;entryDy=0;exitX=0.5;exitY=0;exitDx=0;exitDy=0;" edge="1" parent="1" source="9MmCgiFDYOu9zspJhB9Q-9" target="9MmCgiFDYOu9zspJhB9Q-16">
          <mxGeometry width="50" height="50" relative="1" as="geometry">
            <mxPoint x="480" y="120" as="sourcePoint" />
            <mxPoint x="530" y="70" as="targetPoint" />
          </mxGeometry>
        </mxCell>
        <mxCell id="9MmCgiFDYOu9zspJhB9Q-29" value="" style="endArrow=none;html=1;fontSize=11;entryX=0;entryY=0.5;entryDx=0;entryDy=0;exitX=1;exitY=0.5;exitDx=0;exitDy=0;" edge="1" parent="1" source="9MmCgiFDYOu9zspJhB9Q-9" target="9MmCgiFDYOu9zspJhB9Q-15">
          <mxGeometry width="50" height="50" relative="1" as="geometry">
            <mxPoint x="520" y="200" as="sourcePoint" />
            <mxPoint x="570" y="150" as="targetPoint" />
          </mxGeometry>
        </mxCell>
        <mxCell id="9MmCgiFDYOu9zspJhB9Q-31" value="" style="endArrow=none;html=1;fontSize=11;entryX=0.75;entryY=1;entryDx=0;entryDy=0;exitX=0;exitY=0.5;exitDx=0;exitDy=0;" edge="1" parent="1" source="9MmCgiFDYOu9zspJhB9Q-13" target="9MmCgiFDYOu9zspJhB9Q-9">
          <mxGeometry width="50" height="50" relative="1" as="geometry">
            <mxPoint x="550" y="210" as="sourcePoint" />
            <mxPoint x="600" y="160" as="targetPoint" />
          </mxGeometry>
        </mxCell>
        <mxCell id="9MmCgiFDYOu9zspJhB9Q-32" value="" style="endArrow=none;html=1;fontSize=11;entryX=0;entryY=0.5;entryDx=0;entryDy=0;exitX=1;exitY=0;exitDx=0;exitDy=0;" edge="1" parent="1" source="9MmCgiFDYOu9zspJhB9Q-9" target="9MmCgiFDYOu9zspJhB9Q-17">
          <mxGeometry width="50" height="50" relative="1" as="geometry">
            <mxPoint x="550" y="110" as="sourcePoint" />
            <mxPoint x="600" y="60" as="targetPoint" />
          </mxGeometry>
        </mxCell>
        <mxCell id="9MmCgiFDYOu9zspJhB9Q-33" value="pedido" style="rounded=0;whiteSpace=wrap;html=1;fillColor=#d5e8d4;strokeColor=#82b366;" vertex="1" parent="1">
          <mxGeometry x="80" y="340" width="80" height="40" as="geometry" />
        </mxCell>
        <mxCell id="9MmCgiFDYOu9zspJhB9Q-36" value="cuerpo" style="ellipse;whiteSpace=wrap;html=1;fontSize=11;fillColor=#fff2cc;strokeColor=#d6b656;" vertex="1" parent="1">
          <mxGeometry x="85" y="280" width="70" height="30" as="geometry" />
        </mxCell>
        <mxCell id="9MmCgiFDYOu9zspJhB9Q-37" value="cabecera" style="ellipse;whiteSpace=wrap;html=1;fontSize=11;fillColor=#fff2cc;strokeColor=#d6b656;" vertex="1" parent="1">
          <mxGeometry x="85" y="410" width="70" height="30" as="geometry" />
        </mxCell>
        <mxCell id="9MmCgiFDYOu9zspJhB9Q-38" value="" style="endArrow=none;html=1;fontSize=11;entryX=0.5;entryY=1;entryDx=0;entryDy=0;exitX=0.5;exitY=0;exitDx=0;exitDy=0;" edge="1" parent="1" source="9MmCgiFDYOu9zspJhB9Q-33" target="9MmCgiFDYOu9zspJhB9Q-36">
          <mxGeometry width="50" height="50" relative="1" as="geometry">
            <mxPoint x="40" y="380" as="sourcePoint" />
            <mxPoint x="90" y="330" as="targetPoint" />
          </mxGeometry>
        </mxCell>
        <mxCell id="9MmCgiFDYOu9zspJhB9Q-42" value="" style="endArrow=none;html=1;fontSize=11;entryX=0.5;entryY=1;entryDx=0;entryDy=0;exitX=0.5;exitY=0;exitDx=0;exitDy=0;" edge="1" parent="1" source="9MmCgiFDYOu9zspJhB9Q-37" target="9MmCgiFDYOu9zspJhB9Q-33">
          <mxGeometry width="50" height="50" relative="1" as="geometry">
            <mxPoint x="75" y="450" as="sourcePoint" />
            <mxPoint x="125" y="400" as="targetPoint" />
          </mxGeometry>
        </mxCell>
        <mxCell id="9MmCgiFDYOu9zspJhB9Q-43" value="fabrica" style="rounded=0;whiteSpace=wrap;html=1;fillColor=#d5e8d4;strokeColor=#82b366;" vertex="1" parent="1">
          <mxGeometry x="570" y="320" width="80" height="40" as="geometry" />
        </mxCell>
        <mxCell id="9MmCgiFDYOu9zspJhB9Q-44" value="num_fabrica" style="ellipse;whiteSpace=wrap;html=1;fontSize=11;" vertex="1" parent="1">
          <mxGeometry x="575" y="270" width="70" height="30" as="geometry" />
        </mxCell>
        <mxCell id="9MmCgiFDYOu9zspJhB9Q-45" value="tel_contacto" style="ellipse;whiteSpace=wrap;html=1;fontSize=11;fillColor=#fff2cc;strokeColor=#d6b656;" vertex="1" parent="1">
          <mxGeometry x="575" y="380" width="70" height="30" as="geometry" />
        </mxCell>
        <mxCell id="9MmCgiFDYOu9zspJhB9Q-46" value="" style="endArrow=none;html=1;fontSize=11;entryX=0.5;entryY=1;entryDx=0;entryDy=0;exitX=0.5;exitY=0;exitDx=0;exitDy=0;" edge="1" parent="1" source="9MmCgiFDYOu9zspJhB9Q-43" target="9MmCgiFDYOu9zspJhB9Q-44">
          <mxGeometry width="50" height="50" relative="1" as="geometry">
            <mxPoint x="530" y="360" as="sourcePoint" />
            <mxPoint x="580" y="310" as="targetPoint" />
          </mxGeometry>
        </mxCell>
        <mxCell id="9MmCgiFDYOu9zspJhB9Q-47" value="" style="endArrow=none;html=1;fontSize=11;entryX=0.5;entryY=1;entryDx=0;entryDy=0;exitX=0.5;exitY=0;exitDx=0;exitDy=0;" edge="1" parent="1" source="9MmCgiFDYOu9zspJhB9Q-45" target="9MmCgiFDYOu9zspJhB9Q-43">
          <mxGeometry width="50" height="50" relative="1" as="geometry">
            <mxPoint x="565" y="430" as="sourcePoint" />
            <mxPoint x="615" y="380" as="targetPoint" />
          </mxGeometry>
        </mxCell>
        <mxCell id="9MmCgiFDYOu9zspJhB9Q-48" value="total_art" style="ellipse;whiteSpace=wrap;html=1;fontSize=11;" vertex="1" parent="1">
          <mxGeometry x="670" y="325" width="70" height="30" as="geometry" />
        </mxCell>
        <mxCell id="9MmCgiFDYOu9zspJhB9Q-49" value="" style="endArrow=none;html=1;fontSize=11;entryX=0;entryY=0.5;entryDx=0;entryDy=0;exitX=1;exitY=0.5;exitDx=0;exitDy=0;" edge="1" parent="1" source="9MmCgiFDYOu9zspJhB9Q-43" target="9MmCgiFDYOu9zspJhB9Q-48">
          <mxGeometry width="50" height="50" relative="1" as="geometry">
            <mxPoint x="390" y="250" as="sourcePoint" />
            <mxPoint x="440" y="200" as="targetPoint" />
          </mxGeometry>
        </mxCell>
        <mxCell id="9MmCgiFDYOu9zspJhB9Q-50" value="cabecera" style="rounded=0;whiteSpace=wrap;html=1;fillColor=#d5e8d4;strokeColor=#82b366;" vertex="1" parent="1">
          <mxGeometry x="100" y="550" width="80" height="40" as="geometry" />
        </mxCell>
        <mxCell id="9MmCgiFDYOu9zspJhB9Q-51" value="num_cliente" style="ellipse;whiteSpace=wrap;html=1;fontSize=11;fillColor=#fff2cc;strokeColor=#d6b656;" vertex="1" parent="1">
          <mxGeometry x="105" y="500" width="70" height="30" as="geometry" />
        </mxCell>
        <mxCell id="9MmCgiFDYOu9zspJhB9Q-52" value="fec_pedido" style="ellipse;whiteSpace=wrap;html=1;fontSize=11;fillColor=#fff2cc;strokeColor=#d6b656;" vertex="1" parent="1">
          <mxGeometry x="105" y="610" width="70" height="30" as="geometry" />
        </mxCell>
        <mxCell id="9MmCgiFDYOu9zspJhB9Q-53" value="" style="endArrow=none;html=1;fontSize=11;entryX=0.5;entryY=1;entryDx=0;entryDy=0;exitX=0.5;exitY=0;exitDx=0;exitDy=0;" edge="1" parent="1" source="9MmCgiFDYOu9zspJhB9Q-50" target="9MmCgiFDYOu9zspJhB9Q-51">
          <mxGeometry width="50" height="50" relative="1" as="geometry">
            <mxPoint x="60" y="590" as="sourcePoint" />
            <mxPoint x="110" y="540" as="targetPoint" />
          </mxGeometry>
        </mxCell>
        <mxCell id="9MmCgiFDYOu9zspJhB9Q-54" value="" style="endArrow=none;html=1;fontSize=11;entryX=0.5;entryY=1;entryDx=0;entryDy=0;exitX=0.5;exitY=0;exitDx=0;exitDy=0;" edge="1" parent="1" source="9MmCgiFDYOu9zspJhB9Q-52" target="9MmCgiFDYOu9zspJhB9Q-50">
          <mxGeometry width="50" height="50" relative="1" as="geometry">
            <mxPoint x="95" y="660" as="sourcePoint" />
            <mxPoint x="145" y="610" as="targetPoint" />
          </mxGeometry>
        </mxCell>
        <mxCell id="9MmCgiFDYOu9zspJhB9Q-55" value="dir_envio" style="ellipse;whiteSpace=wrap;html=1;fontSize=11;fillColor=#fff2cc;strokeColor=#d6b656;" vertex="1" parent="1">
          <mxGeometry x="10" y="555" width="70" height="30" as="geometry" />
        </mxCell>
        <mxCell id="9MmCgiFDYOu9zspJhB9Q-58" value="" style="endArrow=none;html=1;fontSize=11;entryX=1;entryY=0.5;entryDx=0;entryDy=0;exitX=0;exitY=0.5;exitDx=0;exitDy=0;" edge="1" parent="1" source="9MmCgiFDYOu9zspJhB9Q-50" target="9MmCgiFDYOu9zspJhB9Q-55">
          <mxGeometry width="50" height="50" relative="1" as="geometry">
            <mxPoint x="390" y="540" as="sourcePoint" />
            <mxPoint x="440" y="490" as="targetPoint" />
          </mxGeometry>
        </mxCell>
        <mxCell id="9MmCgiFDYOu9zspJhB9Q-59" value="cuerpo" style="rounded=0;whiteSpace=wrap;html=1;fillColor=#d5e8d4;strokeColor=#82b366;" vertex="1" parent="1">
          <mxGeometry x="575" y="550" width="80" height="40" as="geometry" />
        </mxCell>
        <mxCell id="9MmCgiFDYOu9zspJhB9Q-60" value="num_articulo" style="ellipse;whiteSpace=wrap;html=1;fontSize=11;fillColor=#fff2cc;strokeColor=#d6b656;" vertex="1" parent="1">
          <mxGeometry x="580" y="500" width="70" height="30" as="geometry" />
        </mxCell>
        <mxCell id="9MmCgiFDYOu9zspJhB9Q-62" value="" style="endArrow=none;html=1;fontSize=11;entryX=0.5;entryY=1;entryDx=0;entryDy=0;exitX=0.5;exitY=0;exitDx=0;exitDy=0;" edge="1" parent="1" source="9MmCgiFDYOu9zspJhB9Q-59" target="9MmCgiFDYOu9zspJhB9Q-60">
          <mxGeometry width="50" height="50" relative="1" as="geometry">
            <mxPoint x="535" y="590" as="sourcePoint" />
            <mxPoint x="585" y="540" as="targetPoint" />
          </mxGeometry>
        </mxCell>
        <mxCell id="9MmCgiFDYOu9zspJhB9Q-64" value="cantidad" style="ellipse;whiteSpace=wrap;html=1;fontSize=11;fillColor=#fff2cc;strokeColor=#d6b656;" vertex="1" parent="1">
          <mxGeometry x="675" y="555" width="70" height="30" as="geometry" />
        </mxCell>
        <mxCell id="9MmCgiFDYOu9zspJhB9Q-65" value="" style="endArrow=none;html=1;fontSize=11;entryX=0;entryY=0.5;entryDx=0;entryDy=0;exitX=1;exitY=0.5;exitDx=0;exitDy=0;" edge="1" parent="1" source="9MmCgiFDYOu9zspJhB9Q-59" target="9MmCgiFDYOu9zspJhB9Q-64">
          <mxGeometry width="50" height="50" relative="1" as="geometry">
            <mxPoint x="395" y="480" as="sourcePoint" />
            <mxPoint x="445" y="430" as="targetPoint" />
          </mxGeometry>
        </mxCell>
        <mxCell id="9MmCgiFDYOu9zspJhB9Q-66" value="direccion" style="rounded=0;whiteSpace=wrap;html=1;fillColor=#d5e8d4;strokeColor=#82b366;" vertex="1" parent="1">
          <mxGeometry x="580" y="710" width="80" height="40" as="geometry" />
        </mxCell>
        <mxCell id="9MmCgiFDYOu9zspJhB9Q-67" value="num_calle" style="ellipse;whiteSpace=wrap;html=1;fontSize=11;fillColor=#fff2cc;strokeColor=#d6b656;" vertex="1" parent="1">
          <mxGeometry x="585" y="660" width="70" height="30" as="geometry" />
        </mxCell>
        <mxCell id="9MmCgiFDYOu9zspJhB9Q-68" value="" style="endArrow=none;html=1;fontSize=11;entryX=0.5;entryY=1;entryDx=0;entryDy=0;exitX=0.5;exitY=0;exitDx=0;exitDy=0;" edge="1" parent="1" source="9MmCgiFDYOu9zspJhB9Q-66" target="9MmCgiFDYOu9zspJhB9Q-67">
          <mxGeometry width="50" height="50" relative="1" as="geometry">
            <mxPoint x="540" y="750" as="sourcePoint" />
            <mxPoint x="590" y="700" as="targetPoint" />
          </mxGeometry>
        </mxCell>
        <mxCell id="9MmCgiFDYOu9zspJhB9Q-69" value="comuna" style="ellipse;whiteSpace=wrap;html=1;fontSize=11;fillColor=#fff2cc;strokeColor=#d6b656;" vertex="1" parent="1">
          <mxGeometry x="680" y="715" width="70" height="30" as="geometry" />
        </mxCell>
        <mxCell id="9MmCgiFDYOu9zspJhB9Q-70" value="" style="endArrow=none;html=1;fontSize=11;entryX=0;entryY=0.5;entryDx=0;entryDy=0;exitX=1;exitY=0.5;exitDx=0;exitDy=0;" edge="1" parent="1" source="9MmCgiFDYOu9zspJhB9Q-66" target="9MmCgiFDYOu9zspJhB9Q-69">
          <mxGeometry width="50" height="50" relative="1" as="geometry">
            <mxPoint x="400" y="640" as="sourcePoint" />
            <mxPoint x="450" y="590" as="targetPoint" />
          </mxGeometry>
        </mxCell>
        <mxCell id="9MmCgiFDYOu9zspJhB9Q-71" value="ciudad" style="ellipse;whiteSpace=wrap;html=1;fontSize=11;fillColor=#fff2cc;strokeColor=#d6b656;" vertex="1" parent="1">
          <mxGeometry x="585" y="780" width="70" height="30" as="geometry" />
        </mxCell>
        <mxCell id="9MmCgiFDYOu9zspJhB9Q-72" value="" style="endArrow=none;html=1;fontSize=11;entryX=0.5;entryY=1;entryDx=0;entryDy=0;exitX=0.5;exitY=0;exitDx=0;exitDy=0;" edge="1" parent="1" source="9MmCgiFDYOu9zspJhB9Q-71" target="9MmCgiFDYOu9zspJhB9Q-66">
          <mxGeometry width="50" height="50" relative="1" as="geometry">
            <mxPoint x="500" y="790" as="sourcePoint" />
            <mxPoint x="550" y="740" as="targetPoint" />
          </mxGeometry>
        </mxCell>
        <mxCell id="9MmCgiFDYOu9zspJhB9Q-73" value="fecha" style="rounded=0;whiteSpace=wrap;html=1;fillColor=#d5e8d4;strokeColor=#82b366;" vertex="1" parent="1">
          <mxGeometry x="100" y="730" width="80" height="40" as="geometry" />
        </mxCell>
        <mxCell id="9MmCgiFDYOu9zspJhB9Q-74" value="fec" style="ellipse;whiteSpace=wrap;html=1;fontSize=11;fillColor=#fff2cc;strokeColor=#d6b656;" vertex="1" parent="1">
          <mxGeometry x="105" y="680" width="70" height="30" as="geometry" />
        </mxCell>
        <mxCell id="9MmCgiFDYOu9zspJhB9Q-76" value="" style="endArrow=none;html=1;fontSize=11;entryX=0.5;entryY=1;entryDx=0;entryDy=0;exitX=0.5;exitY=0;exitDx=0;exitDy=0;" edge="1" parent="1" source="9MmCgiFDYOu9zspJhB9Q-73" target="9MmCgiFDYOu9zspJhB9Q-74">
          <mxGeometry width="50" height="50" relative="1" as="geometry">
            <mxPoint x="60" y="770" as="sourcePoint" />
            <mxPoint x="110" y="720" as="targetPoint" />
          </mxGeometry>
        </mxCell>
        <mxCell id="9MmCgiFDYOu9zspJhB9Q-78" value="hora" style="ellipse;whiteSpace=wrap;html=1;fontSize=11;fillColor=#fff2cc;strokeColor=#d6b656;" vertex="1" parent="1">
          <mxGeometry x="10" y="735" width="70" height="30" as="geometry" />
        </mxCell>
        <mxCell id="9MmCgiFDYOu9zspJhB9Q-79" value="" style="endArrow=none;html=1;fontSize=11;entryX=1;entryY=0.5;entryDx=0;entryDy=0;exitX=0;exitY=0.5;exitDx=0;exitDy=0;" edge="1" parent="1" source="9MmCgiFDYOu9zspJhB9Q-73" target="9MmCgiFDYOu9zspJhB9Q-78">
          <mxGeometry width="50" height="50" relative="1" as="geometry">
            <mxPoint x="390" y="720" as="sourcePoint" />
            <mxPoint x="440" y="670" as="targetPoint" />
          </mxGeometry>
        </mxCell>
        <mxCell id="9MmCgiFDYOu9zspJhB9Q-80" value="num_fabrica" style="ellipse;whiteSpace=wrap;html=1;fontSize=11;fillColor=#f8cecc;strokeColor=#b85450;" vertex="1" parent="1">
          <mxGeometry x="575" y="270" width="70" height="30" as="geometry" />
        </mxCell>
        <mxCell id="9MmCgiFDYOu9zspJhB9Q-81" value="total_art" style="ellipse;whiteSpace=wrap;html=1;fontSize=11;fillColor=#fff2cc;strokeColor=#d6b656;" vertex="1" parent="1">
          <mxGeometry x="670" y="325" width="70" height="30" as="geometry" />
        </mxCell>
      </root>
    </mxGraphModel>
  </diagram>
</mxfile>
